<svg xmlns="http://www.w3.org/2000/svg" viewBox="0 0 256 256">
  <!-- Mother head -->
  <circle cx="150" cy="42" r="22" fill="#000"/>

  <!-- Child head -->
  <circle cx="110" cy="80" r="14" fill="#000"/>

  <!-- Mother body -->
  <path
    d="M150 72
       C178 100, 192 138, 172 190
       C162 214, 146 214, 134 190
       C116 140, 128 100, 150 72Z"
    fill="#000"
  />

  <!-- Child body -->
  <path
    d="M110 96
       C130 120, 136 150, 120 182
       C106 202, 94 198, 88 172
       C80 142, 92 116, 110 96Z"
    fill="#000"
  />

  <!-- Left leaf -->
  <path
    d="M58 150
       C30 138, 30 110, 62 104
       C78 126, 78 146, 58 150Z"
    fill="#000"
  />

  <!-- Right leaf -->
  <path
    d="M198 150
       C226 138, 226 110, 194 104
       C178 126, 178 146, 198 150Z"
    fill="#000"
  />

  <!-- Bottom left leaf -->
  <path
    d="M76 206
       C60 190, 66 164, 96 160
       C118 176, 118 196, 96 210
       C86 216, 80 212, 76 206Z"
    fill="#000"
  />

  <!-- Bottom right leaf -->
  <path
    d="M136 210
       C120 196, 126 176, 156 160
       C176 170, 176 196, 156 210
       C146 216, 140 216, 136 210Z"
    fill="#000"
  />
</svg>